<?xml version="1.0" encoding="utf-8"?>
<!-- Generator: Adobe Illustrator 26.5.0, SVG Export Plug-In . SVG Version: 6.00 Build 0)  -->
<svg version="1.0" id="Ebene_1" xmlns="http://www.w3.org/2000/svg" xmlns:xlink="http://www.w3.org/1999/xlink" x="0px" y="0px"
	 viewBox="0 0 226.8 226.8" enable-background="new 0 0 226.8 226.8" xml:space="preserve">
<g>
	<g>
		<g>
			<defs>
				<path id="SVGID_1_" d="M81.7,129.8c0-13.7-5.1-20.6-15.2-20.6c-2.2,0-4.4,0.3-6.5,0.9c-2.1,0.6-3.9,1.3-5.2,2.1v38.8
					c1,0.2,2.4,0.4,4,0.5c1.6,0.1,3.4,0.2,5.3,0.2c5.8,0,10.2-2,13.2-6C80.2,141.6,81.7,136.3,81.7,129.8L81.7,129.8z M103.4,130.3
					c0,6-0.9,11.5-2.6,16.3c-1.8,4.9-4.3,9-7.7,12.5c-3.3,3.4-7.4,6.1-12.3,7.9c-4.9,1.9-10.4,2.8-16.6,2.8c-2.6,0-5.3-0.1-8.1-0.4
					c-2.8-0.2-5.6-0.5-8.3-0.9c-2.7-0.4-5.3-0.8-7.8-1.4c-2.5-0.5-4.7-1.1-6.6-1.6V60.3l21.3-3.4v37.5c2.4-1,4.9-1.9,7.4-2.4
					c2.6-0.6,5.3-0.9,8.3-0.9c5.3,0,10.1,0.9,14.2,2.8c4.1,1.9,7.5,4.5,10.3,7.9c2.8,3.4,4.9,7.6,6.3,12.4
					C102.7,119,103.4,124.4,103.4,130.3L103.4,130.3z"/>
			</defs>
			<clipPath id="SVGID_00000077309055624087574230000001909697559704670632_">
				<use xlink:href="#SVGID_1_"  overflow="visible"/>
			</clipPath>
		</g>
		<path fill="#FDC300" d="M143.4,60.3l21.3-3.4v35.8h25.6v17.8h-25.6v26.5c0,4.5,0.8,8.1,2.4,10.7c1.6,2.7,4.7,4,9.5,4
			c2.3,0,4.7-0.2,7.1-0.6c2.4-0.4,4.7-1,6.7-1.8l3,16.6c-2.6,1-5.4,2-8.6,2.7c-3.1,0.8-7,1.1-11.6,1.1c-5.8,0-10.6-0.8-14.5-2.4
			c-3.8-1.6-6.9-3.8-9.2-6.6c-2.3-2.8-3.9-6.2-4.8-10.2c-0.9-4-1.4-8.4-1.4-13.3V60.3L143.4,60.3z"/>
		<g>
			<defs>
				<path id="SVGID_00000171686677687511232350000005028153854754324372_" d="M143.4,60.4l21.3-3.4v35.8h25.6v17.8h-25.6V137
					c0,4.5,0.8,8.1,2.4,10.7c1.6,2.7,4.7,4,9.5,4c2.3,0,4.7-0.2,7.1-0.6c2.4-0.4,4.7-1,6.7-1.8l3,16.6c-2.6,1-5.4,2-8.6,2.7
					c-3.1,0.8-7,1.1-11.6,1.1c-5.8,0-10.6-0.8-14.5-2.4c-3.8-1.6-6.9-3.8-9.2-6.6c-2.3-2.8-3.9-6.2-4.8-10.2
					c-0.9-4-1.4-8.4-1.4-13.3V60.4L143.4,60.4z"/>
			</defs>
			<clipPath id="SVGID_00000092437938885110311470000008607541519954679958_">
				<use xlink:href="#SVGID_00000171686677687511232350000005028153854754324372_"  overflow="visible"/>
			</clipPath>
		</g>
		<path fill="#FDC300" d="M134.6,70.9c0,3.9-1.3,7-3.8,9.2c-2.5,2.2-5.5,3.4-8.9,3.4c-3.4,0-6.4-1.1-8.9-3.4
			c-2.5-2.2-3.8-5.3-3.8-9.2c0-3.9,1.3-7,3.8-9.2c2.5-2.2,5.5-3.4,8.9-3.4c3.4,0,6.4,1.1,8.9,3.4C133.4,63.9,134.6,67,134.6,70.9
			L134.6,70.9z"/>
		<path fill="#4D4D4D" d="M96.1,157.3c0,3.9-1.3,7-3.8,9.2c-2.5,2.2-5.5,3.4-8.9,3.4c-3.4,0-6.4-1.1-8.9-3.4
			c-2.5-2.2-3.8-5.3-3.8-9.2c0-3.9,1.3-7,3.8-9.2c2.5-2.2,5.5-3.4,8.9-3.4c3.4,0,6.4,1.1,8.9,3.4C94.8,150.3,96.1,153.4,96.1,157.3
			L96.1,157.3z"/>
		<polygon fill="#FDC300" points="132.6,168 111.3,168 111.3,92.7 132.6,92.7 132.6,168 		"/>
		<path fill="#4D4D4D" d="M101.3,114.2c-1.4-4.8-3.5-8.9-6.3-12.4c-2.8-3.4-6.2-6.1-10.3-7.9c-4.1-1.9-8.8-2.8-14.2-2.8
			c-3,0-5.7,0.3-8.3,0.9c-2.6,0.6-5.1,1.4-7.4,2.4V56.9l-21.3,3.4v105.2c1.9,0.6,4.1,1.1,6.6,1.6c2.5,0.5,5.1,1,7.8,1.4
			c2.7,0.4,5.5,0.7,8.3,0.9c2.8,0.2,5.5,0.4,8.1,0.4c2.5,0,4.9-0.2,7.2-0.5c-3.4-3.2-4.9-7.4-4.9-12.1c0-2.1,0.3-4,0.9-5.9
			c-1.1,0.2-2.2,0.3-3.3,0.3c-1.9,0-3.7-0.1-5.3-0.2c-1.6-0.1-3-0.3-4-0.5v-38.8c1.3-0.9,3.1-1.6,5.2-2.1c2.1-0.6,4.3-0.9,6.5-0.9
			c10.1,0,15.2,6.9,15.2,20.6c0,4.2-0.6,8-1.9,11.1c1.1-0.2,2.3-0.3,3.5-0.3c4.4,0,8.4,1.5,11.7,4.4c1.8,1.6,3.2,3.6,4,5.7
			c0.6-1.3,1.2-2.6,1.7-4c1.8-4.9,2.6-10.3,2.6-16.3C103.4,124.4,102.7,119,101.3,114.2z"/>
		<g>
			
				<linearGradient id="SVGID_00000137098845137239759640000012316475170368994486_" gradientUnits="userSpaceOnUse" x1="54.7627" y1="120.8762" x2="105.5729" y2="120.8762">
				<stop  offset="0" style="stop-color:#000000"/>
				<stop  offset="5.042624e-02" style="stop-color:#0F0F0F"/>
				<stop  offset="0.1467" style="stop-color:#262626"/>
				<stop  offset="0.2582" style="stop-color:#383838"/>
				<stop  offset="0.3928" style="stop-color:#444444"/>
				<stop  offset="0.5739" style="stop-color:#4B4B4B"/>
				<stop  offset="1" style="stop-color:#4D4D4D"/>
			</linearGradient>
			<path fill="url(#SVGID_00000137098845137239759640000012316475170368994486_)" d="M101.3,114.2c-1.4-4.8-3.5-8.9-6.3-12.4
				c-2.8-3.4-6.2-6.1-10.3-7.9c-4.1-1.9-8.8-2.8-14.2-2.8c-3,0-5.7,0.3-8.3,0.9c-2.6,0.6-5.1,1.4-7.4,2.4v17.8
				c1.3-0.9,3.1-1.6,5.2-2.1c2.1-0.6,4.3-0.9,6.5-0.9c10.1,0,15.2,6.9,15.2,20.6c0,4.2-0.6,8-1.9,11.1c1.1-0.2,2.3-0.3,3.5-0.3
				c4.4,0,8.4,1.5,11.7,4.4c1.8,1.6,3.2,3.6,4,5.7c0.6-1.3,1.2-2.6,1.7-4c1.8-4.9,2.6-10.3,2.6-16.3
				C103.4,124.4,102.7,119,101.3,114.2z"/>
			
				<linearGradient id="SVGID_00000011033068220917895620000009300658070099301530_" gradientUnits="userSpaceOnUse" x1="54.7627" y1="160.3952" x2="72.1223" y2="160.3952">
				<stop  offset="0" style="stop-color:#000000"/>
				<stop  offset="5.042624e-02" style="stop-color:#0F0F0F"/>
				<stop  offset="0.1467" style="stop-color:#262626"/>
				<stop  offset="0.2582" style="stop-color:#383838"/>
				<stop  offset="0.3928" style="stop-color:#444444"/>
				<stop  offset="0.5739" style="stop-color:#4B4B4B"/>
				<stop  offset="1" style="stop-color:#4D4D4D"/>
			</linearGradient>
			<path fill="url(#SVGID_00000011033068220917895620000009300658070099301530_)" d="M66.5,157.3c0-2.1,0.3-4,0.9-5.9
				c-1.1,0.2-2.2,0.3-3.3,0.3c-1.9,0-3.7-0.1-5.3-0.2c-1.6-0.1-3-0.3-4-0.5v18.4c0.5,0,0.9,0.1,1.4,0.2c2.8,0.2,5.5,0.4,8.1,0.4
				c2.5,0,4.9-0.2,7.2-0.5C68,166.2,66.5,161.9,66.5,157.3z"/>
		</g>
		
			<linearGradient id="SVGID_00000099629358682414591750000005237214359556417165_" gradientUnits="userSpaceOnUse" x1="164.708" y1="101.5572" x2="190.3294" y2="101.5572">
			<stop  offset="0" style="stop-color:#4D4D4D"/>
			<stop  offset="1.744008e-02" style="stop-color:#5A5648"/>
			<stop  offset="7.689965e-02" style="stop-color:#806F37"/>
			<stop  offset="0.1429" style="stop-color:#A28628"/>
			<stop  offset="0.2151" style="stop-color:#BF991C"/>
			<stop  offset="0.2955" style="stop-color:#D6A811"/>
			<stop  offset="0.3877" style="stop-color:#E7B40A"/>
			<stop  offset="0.4988" style="stop-color:#F4BD04"/>
			<stop  offset="0.6483" style="stop-color:#FBC101"/>
			<stop  offset="1" style="stop-color:#FDC300"/>
		</linearGradient>
		
			<rect x="164.7" y="92.7" fill-rule="evenodd" clip-rule="evenodd" fill="url(#SVGID_00000099629358682414591750000005237214359556417165_)" width="25.6" height="17.8"/>
	</g>
</g>
</svg>
